<?xml version="1.0" standalone="no"?><!DOCTYPE svg PUBLIC "-//W3C//DTD SVG 1.1//EN" "http://www.w3.org/Graphics/SVG/1.1/DTD/svg11.dtd"><svg t="1691945247129" class="icon" viewBox="0 0 1024 1024" version="1.1" xmlns="http://www.w3.org/2000/svg" p-id="1846" xmlns:xlink="http://www.w3.org/1999/xlink" width="200" height="200"><path d="M508.7 927.6c-56.2 0-110.6-11-161.9-32.7-49.5-21-94-50.9-132.2-89.1-38.2-38.2-68.2-82.7-89.1-132.2-21.7-51.3-32.7-105.8-32.7-161.9 0-56.2 11-110.6 32.7-161.9 21-49.5 50.9-94 89.1-132.2 38.2-38.2 82.7-68.2 132.2-89.1 51.3-21.7 105.8-32.7 161.9-32.7s110.6 11 161.9 32.7c49.5 21 94 50.9 132.2 89.1 38.2 38.2 68.2 82.7 89.1 132.2 21.7 51.3 32.7 105.8 32.7 161.9 0 56.2-11 110.6-32.7 161.9-21 49.5-50.9 94-89.1 132.2-38.2 38.2-82.7 68.2-132.2 89.1-51.2 21.7-105.7 32.7-161.9 32.7z m0-800c-51.8 0-102.1 10.2-149.5 30.2-45.7 19.3-86.8 47-122.1 82.3s-63 76.3-82.3 122.1c-20 47.3-30.2 97.6-30.2 149.5 0 51.8 10.2 102.1 30.2 149.5 19.3 45.7 47 86.8 82.3 122.1s76.3 63 122.1 82.3c47.3 20 97.6 30.2 149.5 30.2s102.1-10.2 149.5-30.2c45.7-19.3 86.8-47 122.1-82.3s63-76.3 82.3-122.1c20-47.3 30.2-97.6 30.2-149.5 0-51.8-10.2-102.1-30.2-149.5-19.3-45.7-47-86.8-82.3-122.1s-76.3-63-122.1-82.3c-47.3-20-97.6-30.2-149.5-30.2z" fill="" p-id="1847"></path><path d="M710.4 540h-400V286.3c0-6.9 6.8-11.7 13.3-9.4l159.2 55.7c17.8 6.2 37.2 6.2 55 0l159.2-55.7c6.5-2.3 13.3 2.6 13.3 9.4V540z" fill="#FFA625" p-id="1848"></path><path d="M726.4 556h-432V286.3c0-8.4 4.1-16.3 11-21.2 6.9-4.9 15.7-6.1 23.6-3.3l159.2 55.7c14.3 5 30.1 5 44.4 0l159.2-55.7c7.9-2.8 16.8-1.5 23.6 3.3 6.9 4.9 11 12.8 11 21.2V556z m-400-32h368V294.7l-151.2 52.9c-21.1 7.4-44.4 7.4-65.5 0l-151.2-52.9V524z" fill="#231F20" p-id="1849"></path><path d="M565.1 740H456.3c-80.1 0-145.6-65.5-145.6-145.6V485.6c0-80.1 65.5-145.6 145.6-145.6h108.8c80.1 0 145.6 65.5 145.6 145.6v108.8c0 80.1-65.5 145.6-145.6 145.6z" fill="#FFA625" p-id="1850"></path><path d="M565.1 756H456.3c-43 0-83.5-16.9-114.1-47.5-30.6-30.6-47.5-71.1-47.5-114.1V485.6c0-43 16.9-83.5 47.5-114.1S413.3 324 456.3 324h108.8c43 0 83.5 16.9 114.1 47.5 30.6 30.6 47.5 71.1 47.5 114.1v108.8c0 43-16.9 83.5-47.5 114.1-30.5 30.6-71.1 47.5-114.1 47.5zM456.3 356c-34.5 0-67 13.5-91.5 38.1s-38.1 57.1-38.1 91.5v108.8c0 34.5 13.5 67 38.1 91.5 24.6 24.6 57.1 38.1 91.5 38.1h108.8c34.5 0 67-13.5 91.5-38.1 24.6-24.6 38.1-57.1 38.1-91.5V485.6c0-34.5-13.5-67-38.1-91.5-24.6-24.6-57.1-38.1-91.5-38.1H456.3z" fill="#231F20" p-id="1851"></path><path d="M460.3 727.5h100.2c73.8 0 134.1-60.4 134.1-134.1v-2.8c-6.2-1.1-12.6-1.7-19.1-1.7-29.1 0-55.6 11.3-75.3 29.8-18.9-33.2-54.6-55.5-95.5-55.5-37.6 0-70.7 18.9-90.5 47.6-18.4-13.8-41.2-21.9-65.9-21.9-7.6 0-15 0.8-22.2 2.2v2.2c0.1 73.8 60.4 134.2 134.2 134.2z" fill="#FFFFFF" p-id="1852"></path><path d="M467.3 610.5a40.6 25.3 0 1 0 81.2 0 40.6 25.3 0 1 0-81.2 0Z" fill="" p-id="1853"></path><path d="M470.8 439.4l-2-7.4c-4-15.1-22.9-20.1-33.9-9.1-11 11-6 29.9 9.1 33.9l7.4 2c11.8 3.2 22.6-7.6 19.4-19.4zM551.5 439.4l2-7.4c4-15.1 22.9-20.1 33.9-9.1 11 11 6 29.9-9.1 33.9l-7.4 2c-11.7 3.2-22.5-7.6-19.4-19.4z" fill="#FFFFFF" p-id="1854"></path><path d="M463.3 683.9c-27.6 0-50-22.4-50-50 0-4.4 3.6-8 8-8s8 3.6 8 8c0 18.7 15.2 34 34 34s34-15.2 34-34c0-4.4 3.6-8 8-8s8 3.6 8 8c0 27.5-22.4 50-50 50z" fill="" p-id="1855"></path><path d="M548.5 683.9c-27.6 0-50-22.4-50-50 0-4.4 3.6-8 8-8s8 3.6 8 8c0 18.7 15.2 34 34 34s34-15.2 34-34c0-4.4 3.6-8 8-8s8 3.6 8 8c0 27.5-22.4 50-50 50z" fill="" p-id="1856"></path><path d="M395.6 530.1c-3.8 0-7.6-1.3-10.6-4-6.6-5.9-7.2-16-1.3-22.6 25.5-28.7 69.7-31.3 98.4-5.8 6.6 5.9 7.2 16 1.3 22.6-5.9 6.6-16 7.2-22.6 1.3-15.5-13.8-39.4-12.4-53.2 3.1-3.2 3.6-7.6 5.4-12 5.4zM551 529.1c-4.1 0-8.2-1.5-11.3-4.6-6.3-6.2-6.3-16.4-0.1-22.6 27.1-27.3 71.3-27.4 98.6-0.3 6.3 6.2 6.3 16.4 0.1 22.6-6.2 6.3-16.4 6.3-22.6 0.1-14.7-14.6-38.7-14.6-53.3 0.2-3.2 3-7.3 4.6-11.4 4.6z" fill="#231F20" p-id="1857"></path></svg>